<?xml version="1.0" standalone="no"?>
<!DOCTYPE svg PUBLIC "-//W3C//DTD SVG 20010904//EN"
 "http://www.w3.org/TR/2001/REC-SVG-20010904/DTD/svg10.dtd">
<svg version="1.0" xmlns="http://www.w3.org/2000/svg"
 width="400.000000pt" height="140.000000pt" viewBox="0 0 400.000000 140.000000"
 preserveAspectRatio="xMidYMid meet">

<g transform="translate(0.000000,140.000000) scale(0.100000,-0.100000)"
fill="#000000" stroke="none">
<path d="M280 1291 c-81 -25 -131 -74 -155 -153 -12 -42 -15 -118 -15 -412 0
-210 5 -380 11 -406 26 -114 100 -167 225 -157 162 12 258 100 284 258 12 74
13 206 3 211 -5 3 -42 2 -83 -1 l-75 -6 -7 -108 c-7 -117 -20 -151 -64 -167
-43 -17 -71 -11 -93 16 -20 26 -21 38 -21 375 l0 348 24 28 c19 22 32 28 65
28 24 0 47 -7 57 -16 20 -21 33 -79 34 -148 l0 -54 53 7 c28 3 67 6 86 6 l34
0 -5 83 c-3 45 -12 102 -19 127 -17 57 -73 113 -134 134 -50 16 -160 20 -205
7z"/>
<path d="M870 1285 c0 -2 -21 -120 -46 -262 -52 -296 -133 -797 -129 -801 4
-5 143 11 154 17 5 4 17 49 25 100 9 52 17 96 20 98 4 5 199 21 204 17 2 -1
10 -44 18 -95 9 -52 16 -94 17 -95 1 -1 42 1 91 4 l88 5 -7 51 c-3 28 -38 229
-77 446 -38 217 -75 423 -81 458 l-11 62 -133 0 c-73 0 -133 -2 -133 -5z m200
-656 c0 -25 -2 -26 -77 -32 -43 -3 -78 -5 -79 -4 -1 1 16 110 37 242 21 132
39 247 40 255 2 20 78 -427 79 -461z"/>
<path d="M1280 1220 l0 -70 90 0 90 0 0 -436 0 -436 23 6 c12 3 52 6 90 6 l67
0 0 430 0 429 93 3 92 3 3 68 3 67 -276 0 -275 0 0 -70z"/>
<path d="M1900 795 l0 -495 90 0 90 0 0 210 0 210 115 0 115 0 0 70 0 70 -115
0 -115 0 0 145 0 145 145 0 145 0 0 70 0 70 -235 0 -235 0 0 -495z"/>
<path d="M2450 791 l0 -499 63 -6 c34 -3 107 -8 162 -11 55 -3 133 -8 173 -12
l72 -6 0 81 0 80 -117 6 c-65 4 -129 8 -143 9 l-25 2 -3 428 -2 427 -90 0 -90
0 0 -499z"/>
<path d="M2990 770 l0 -520 23 -1 c12 0 52 -3 90 -8 l67 -7 0 528 0 528 -90 0
-90 0 0 -520z"/>
<path d="M3275 1273 c4 -10 46 -124 92 -254 l86 -237 -91 -253 c-50 -140 -93
-266 -97 -280 -6 -26 -6 -26 75 -35 70 -9 83 -8 89 6 4 8 36 104 71 212 35
109 67 195 71 190 4 -4 37 -108 74 -231 36 -124 67 -226 68 -227 4 -3 182 -32
185 -30 3 4 -51 186 -125 419 l-67 208 31 92 c17 51 58 170 91 265 l61 173
-86 -3 -86 -3 -62 -183 c-34 -100 -64 -184 -66 -187 -3 -2 -33 81 -68 185
l-62 190 -96 0 c-87 0 -94 -2 -88 -17z"/>
</g>
</svg>
